<svg xmlns="http://www.w3.org/2000/svg" xmlns:xlink="http://www.w3.org/1999/xlink" width="500" zoomAndPan="magnify" viewBox="0 0 375 374.999991" height="500" preserveAspectRatio="xMidYMid meet" version="1.0"><defs><g/><clipPath id="id1"><path d="M 55.375 43.050781 L 294 43.050781 L 294 142.800781 L 55.375 142.800781 Z M 55.375 43.050781 " clip-rule="nonzero"/></clipPath><clipPath id="id2"><path d="M 127 68 L 317.875 68 L 317.875 142.800781 L 127 142.800781 Z M 127 68 " clip-rule="nonzero"/></clipPath><clipPath id="id3"><path d="M 57 218.929688 L 296 218.929688 L 296 318.679688 L 57 318.679688 Z M 57 218.929688 " clip-rule="nonzero"/></clipPath><clipPath id="id4"><path d="M 128 218.929688 L 319.367188 218.929688 L 319.367188 294 L 128 294 Z M 128 218.929688 " clip-rule="nonzero"/></clipPath></defs><g clip-path="url(#id1)"><path fill="#007aff" d="M 206.175781 297.035156 C 139.671875 297.035156 85.761719 243.09375 85.761719 176.550781 C 85.761719 110.007812 139.671875 56.066406 206.175781 56.066406 C 240.609375 56.066406 271.664062 70.535156 293.613281 93.71875 C 269.171875 62.851562 231.382812 43.046875 188.96875 43.046875 C 115.28125 43.046875 55.546875 102.820312 55.546875 176.550781 C 55.546875 250.285156 115.28125 310.054688 188.96875 310.054688 C 231.382812 310.054688 269.171875 290.25 293.613281 259.386719 C 271.664062 282.570312 240.609375 297.035156 206.175781 297.035156 " fill-opacity="1" fill-rule="nonzero"/></g><g clip-path="url(#id2)"><path fill="#393536" d="M 209.6875 68.4375 C 176.742188 68.4375 147.242188 83.191406 127.425781 106.457031 C 146.742188 88.371094 172.695312 77.296875 201.234375 77.296875 C 260.910156 77.296875 309.289062 125.699219 309.289062 185.410156 C 309.289062 212.152344 299.582031 236.621094 283.507812 255.492188 C 304.570312 235.765625 317.738281 207.699219 317.738281 176.550781 C 317.738281 116.839844 269.363281 68.4375 209.6875 68.4375 " fill-opacity="1" fill-rule="nonzero"/></g><g clip-path="url(#id3)"><path fill="#007aff" d="M 207.667969 64.800781 C 141.167969 64.800781 87.257812 118.742188 87.257812 185.285156 C 87.257812 251.828125 141.167969 305.769531 207.667969 305.769531 C 242.105469 305.769531 273.160156 291.300781 295.105469 268.117188 C 270.664062 298.984375 232.875 318.789062 190.464844 318.789062 C 116.777344 318.789062 57.039062 259.015625 57.039062 185.285156 C 57.039062 111.550781 116.777344 51.78125 190.464844 51.78125 C 232.875 51.78125 270.664062 71.585938 295.105469 102.449219 C 273.160156 79.265625 242.105469 64.800781 207.667969 64.800781 " fill-opacity="1" fill-rule="nonzero"/></g><g clip-path="url(#id4)"><path fill="#393536" d="M 211.183594 293.398438 C 178.238281 293.398438 148.738281 278.644531 128.921875 255.378906 C 148.234375 273.464844 174.191406 284.539062 202.730469 284.539062 C 262.40625 284.539062 310.785156 236.136719 310.785156 176.425781 C 310.785156 149.683594 301.074219 125.214844 285 106.34375 C 306.066406 126.070312 319.234375 154.136719 319.234375 185.285156 C 319.234375 244.996094 270.859375 293.398438 211.183594 293.398438 " fill-opacity="1" fill-rule="nonzero"/></g><g fill="#000000" fill-opacity="1"><g transform="translate(0.563613, 203.786462)"><g><path d="M 49.078125 0 L 49 -28.625 L 34.96875 -5.046875 L 29.984375 -5.046875 L 16.015625 -28.015625 L 16.015625 0 L 5.65625 0 L 5.65625 -47.703125 L 14.796875 -47.703125 L 32.640625 -18.0625 L 50.234375 -47.703125 L 59.296875 -47.703125 L 59.4375 0 Z M 49.078125 0 "/></g></g></g><g fill="#000000" fill-opacity="1"><g transform="translate(66.656418, 203.786462)"><g><path d="M 42.59375 -8.859375 L 42.59375 0 L 5.65625 0 L 5.65625 -47.703125 L 41.71875 -47.703125 L 41.71875 -38.84375 L 16.625 -38.84375 L 16.625 -28.484375 L 38.78125 -28.484375 L 38.78125 -19.90625 L 16.625 -19.90625 L 16.625 -8.859375 Z M 42.59375 -8.859375 "/></g></g></g><g fill="#000000" fill-opacity="1"><g transform="translate(113.398449, 203.786462)"><g><path d="M 21.328125 0.8125 C 17.554688 0.8125 13.910156 0.300781 10.390625 -0.71875 C 6.867188 -1.738281 4.039062 -3.066406 1.90625 -4.703125 L 5.65625 -13.015625 C 7.695312 -11.515625 10.125 -10.3125 12.9375 -9.40625 C 15.757812 -8.5 18.582031 -8.046875 21.40625 -8.046875 C 24.539062 -8.046875 26.859375 -8.507812 28.359375 -9.4375 C 29.859375 -10.375 30.609375 -11.613281 30.609375 -13.15625 C 30.609375 -14.289062 30.160156 -15.234375 29.265625 -15.984375 C 28.378906 -16.734375 27.242188 -17.332031 25.859375 -17.78125 C 24.472656 -18.238281 22.601562 -18.738281 20.25 -19.28125 C 16.613281 -20.144531 13.632812 -21.007812 11.3125 -21.875 C 9 -22.738281 7.007812 -24.125 5.34375 -26.03125 C 3.6875 -27.9375 2.859375 -30.484375 2.859375 -33.671875 C 2.859375 -36.441406 3.609375 -38.953125 5.109375 -41.203125 C 6.609375 -43.453125 8.867188 -45.234375 11.890625 -46.546875 C 14.910156 -47.867188 18.601562 -48.53125 22.96875 -48.53125 C 26.007812 -48.53125 28.984375 -48.164062 31.890625 -47.4375 C 34.804688 -46.707031 37.351562 -45.660156 39.53125 -44.296875 L 36.125 -35.921875 C 31.71875 -38.421875 27.3125 -39.671875 22.90625 -39.671875 C 19.8125 -39.671875 17.523438 -39.171875 16.046875 -38.171875 C 14.566406 -37.171875 13.828125 -35.851562 13.828125 -34.21875 C 13.828125 -32.582031 14.679688 -31.363281 16.390625 -30.5625 C 18.097656 -29.769531 20.703125 -28.988281 24.203125 -28.21875 C 27.828125 -27.351562 30.796875 -26.488281 33.109375 -25.625 C 35.429688 -24.757812 37.421875 -23.394531 39.078125 -21.53125 C 40.742188 -19.675781 41.578125 -17.15625 41.578125 -13.96875 C 41.578125 -11.238281 40.816406 -8.75 39.296875 -6.5 C 37.773438 -4.257812 35.488281 -2.476562 32.4375 -1.15625 C 29.394531 0.15625 25.691406 0.8125 21.328125 0.8125 Z M 21.328125 0.8125 "/></g></g></g><g fill="#000000" fill-opacity="1"><g transform="translate(157.891973, 203.786462)"><g><path d="M 21.328125 0.8125 C 17.554688 0.8125 13.910156 0.300781 10.390625 -0.71875 C 6.867188 -1.738281 4.039062 -3.066406 1.90625 -4.703125 L 5.65625 -13.015625 C 7.695312 -11.515625 10.125 -10.3125 12.9375 -9.40625 C 15.757812 -8.5 18.582031 -8.046875 21.40625 -8.046875 C 24.539062 -8.046875 26.859375 -8.507812 28.359375 -9.4375 C 29.859375 -10.375 30.609375 -11.613281 30.609375 -13.15625 C 30.609375 -14.289062 30.160156 -15.234375 29.265625 -15.984375 C 28.378906 -16.734375 27.242188 -17.332031 25.859375 -17.78125 C 24.472656 -18.238281 22.601562 -18.738281 20.25 -19.28125 C 16.613281 -20.144531 13.632812 -21.007812 11.3125 -21.875 C 9 -22.738281 7.007812 -24.125 5.34375 -26.03125 C 3.6875 -27.9375 2.859375 -30.484375 2.859375 -33.671875 C 2.859375 -36.441406 3.609375 -38.953125 5.109375 -41.203125 C 6.609375 -43.453125 8.867188 -45.234375 11.890625 -46.546875 C 14.910156 -47.867188 18.601562 -48.53125 22.96875 -48.53125 C 26.007812 -48.53125 28.984375 -48.164062 31.890625 -47.4375 C 34.804688 -46.707031 37.351562 -45.660156 39.53125 -44.296875 L 36.125 -35.921875 C 31.71875 -38.421875 27.3125 -39.671875 22.90625 -39.671875 C 19.8125 -39.671875 17.523438 -39.171875 16.046875 -38.171875 C 14.566406 -37.171875 13.828125 -35.851562 13.828125 -34.21875 C 13.828125 -32.582031 14.679688 -31.363281 16.390625 -30.5625 C 18.097656 -29.769531 20.703125 -28.988281 24.203125 -28.21875 C 27.828125 -27.351562 30.796875 -26.488281 33.109375 -25.625 C 35.429688 -24.757812 37.421875 -23.394531 39.078125 -21.53125 C 40.742188 -19.675781 41.578125 -17.15625 41.578125 -13.96875 C 41.578125 -11.238281 40.816406 -8.75 39.296875 -6.5 C 37.773438 -4.257812 35.488281 -2.476562 32.4375 -1.15625 C 29.394531 0.15625 25.691406 0.8125 21.328125 0.8125 Z M 21.328125 0.8125 "/></g></g></g><g fill="#000000" fill-opacity="1"><g transform="translate(202.385498, 203.786462)"><g><path d="M 5.65625 -47.703125 L 16.703125 -47.703125 L 16.703125 0 L 5.65625 0 Z M 5.65625 -47.703125 "/></g></g></g><g fill="#000000" fill-opacity="1"><g transform="translate(225.756686, 203.786462)"><g><path d="M 36.046875 0 L 26.859375 -13.296875 L 16.703125 -13.296875 L 16.703125 0 L 5.65625 0 L 5.65625 -47.703125 L 26.3125 -47.703125 C 30.53125 -47.703125 34.195312 -47 37.3125 -45.59375 C 40.425781 -44.1875 42.820312 -42.1875 44.5 -39.59375 C 46.1875 -37.007812 47.03125 -33.941406 47.03125 -30.390625 C 47.03125 -26.847656 46.175781 -23.789062 44.46875 -21.21875 C 42.769531 -18.65625 40.351562 -16.691406 37.21875 -15.328125 L 47.90625 0 Z M 35.84375 -30.390625 C 35.84375 -33.078125 34.976562 -35.132812 33.25 -36.5625 C 31.53125 -38 29.007812 -38.71875 25.6875 -38.71875 L 16.703125 -38.71875 L 16.703125 -22.078125 L 25.6875 -22.078125 C 29.007812 -22.078125 31.53125 -22.800781 33.25 -24.25 C 34.976562 -25.707031 35.84375 -27.753906 35.84375 -30.390625 Z M 35.84375 -30.390625 "/></g></g></g><g fill="#000000" fill-opacity="1"><g transform="translate(276.85944, 203.786462)"><g><path d="M 51.53125 -47.703125 L 30.875 0 L 19.96875 0 L -0.609375 -47.703125 L 11.3125 -47.703125 L 25.828125 -13.625 L 40.546875 -47.703125 Z M 51.53125 -47.703125 "/></g></g></g><g fill="#000000" fill-opacity="1"><g transform="translate(328.711706, 203.786462)"><g><path d="M 42.59375 -8.859375 L 42.59375 0 L 5.65625 0 L 5.65625 -47.703125 L 41.71875 -47.703125 L 41.71875 -38.84375 L 16.625 -38.84375 L 16.625 -28.484375 L 38.78125 -28.484375 L 38.78125 -19.90625 L 16.625 -19.90625 L 16.625 -8.859375 Z M 42.59375 -8.859375 "/></g></g></g></svg>